<!DOCTYPE svg PUBLIC "-//W3C//DTD SVG 1.1//EN" "http://www.w3.org/Graphics/SVG/1.1/DTD/svg11.dtd">
<!-- Uploaded to: SVG Repo, www.svgrepo.com, Transformed by: SVG Repo Mixer Tools -->
<svg fill="#D45102" height="256px" width="256px" version="1.1" id="Capa_1" xmlns="http://www.w3.org/2000/svg" xmlns:xlink="http://www.w3.org/1999/xlink" viewBox="0 0 470.00 470.00" xml:space="preserve" stroke="#D45102" stroke-width="0.00470003">
<g id="SVGRepo_bgCarrier" stroke-width="0"/>
<g id="SVGRepo_tracerCarrier" stroke-linecap="round" stroke-linejoin="round" stroke="#CCCCCC" stroke-width="3.760024"/>
<g id="SVGRepo_iconCarrier"> <g> <path d="M446.196,459.105L243.414,59.911l24.897-49.012c1.876-3.693,0.403-8.207-3.29-10.083c-3.694-1.876-8.208-0.403-10.083,3.29 l-19.936,39.246L215.066,4.105c-1.875-3.693-6.391-5.167-10.083-3.29c-3.693,1.876-5.166,6.39-3.29,10.083l24.897,49.012 l-65.482,128.906c-0.01,0.018-0.019,0.038-0.028,0.056L23.807,459.105c-1.876,3.693-0.403,8.207,3.29,10.083 c1.088,0.553,2.248,0.815,3.391,0.815c2.734,0,5.37-1.5,6.692-4.105l8.075-15.896H164.53v12.5c0,4.142,3.358,7.5,7.5,7.5 s7.5-3.358,7.5-7.5v-12.5h110.942v12.5c0,4.142,3.358,7.5,7.5,7.5s7.5-3.358,7.5-7.5v-12.5h119.275l8.075,15.896 c1.323,2.605,3.958,4.105,6.692,4.105c1.143,0,2.303-0.262,3.391-0.815C446.599,467.312,448.072,462.798,446.196,459.105z M217.696,184.903c-4.142,0-7.499,3.357-7.5,7.499c0,4.144,3.358,7.501,7.5,7.501h80.007l9.07,17.854l-32.169,16.244 l-36.227-18.293c-2.126-1.073-4.635-1.073-6.761,0l-36.221,18.292l-32.164-16.243l9.07-17.854h15.396c4.142,0,7.5-3.358,7.5-7.5 c-0.001-4.143-3.358-7.5-7.5-7.5h-7.776L235.002,76.47l55.082,108.433H217.696z M81.796,378.069h82.734v56.933H52.875 L81.796,378.069z M179.53,370.569c0-30.587,24.884-55.472,55.471-55.472s55.471,24.884,55.471,55.472v64.433H179.53V370.569z M305.473,378.069h12.5c4.141,0,7.498-3.356,7.5-7.497c0-4.145-3.358-7.503-7.5-7.503h-12.903 c-3.757-35.345-33.744-62.972-70.068-62.972s-66.311,27.627-70.068,62.972H89.416l67.021-131.937l35.577,17.967 c2.126,1.074,4.636,1.074,6.762,0l36.221-18.293l36.227,18.293c1.063,0.537,2.222,0.805,3.381,0.805s2.318-0.269,3.38-0.805 l35.582-17.967l67.022,131.937h-32.615c-4.142,0-7.5,3.358-7.5,7.5c0.002,4.144,3.359,7.5,7.5,7.5h40.234l28.921,56.933H305.473 V378.069z"/> </g> </g>
</svg>