<svg width="607" height="554" viewBox="0 0 607 554" fill="none" xmlns="http://www.w3.org/2000/svg">
<path d="M577.029 6.01288C572.759 4.15288 566.299 1.62288 562.029 1.01288C535.849 0.492881 510.129 15.7429 505.029 42.0129C499.929 68.2829 515.219 94.5729 540.359 101.683C565.499 108.793 593.299 96.6829 603.049 71.0329C612.809 45.3929 599.689 19.1929 577.029 6.01288Z" fill="#D45206" stroke="#D45102"/>
<path d="M1.02848 54.0103C15.1785 75.0303 30.4585 99.4203 45.0285 122.01C51.5585 130.04 54.6485 134.98 60.7785 144.26C66.9185 153.54 75.5285 158.55 87.0285 159.01C98.5285 159.47 114.238 159.86 126.028 160.01C137.818 160.16 156.268 158.91 167.028 160.01C177.788 161.11 197.118 155.01 202.028 166.01C204.208 170.9 201.208 178.87 200.028 184.01C199.108 188.05 196.968 192.32 196.028 196.01C194.268 202.89 193.038 209.91 192.028 217.01C191.498 220.74 190.058 223.88 189.028 227.01C188.558 229.37 188.338 231.48 188.028 234.01C186.998 242.3 184.878 254.95 181.028 262.01C181.028 262.01 181.038 262.51 181.028 263.01C180.798 272.97 176.298 283.83 174.028 293.01C173.048 300.92 170.968 309.3 169.028 317.01C165.348 331.66 161.268 346.15 158.028 361.01C154.398 377.66 148.718 394.08 146.028 411.01C142.048 436.05 133.508 460.73 128.028 485.01C127.838 486.61 127.328 487.89 127.028 489.01C124.418 498.64 121.958 507.28 120.248 517.23C118.538 527.19 112.948 534.43 115.008 545.03C117.058 555.63 133.438 552.41 143.028 553.01C152.618 553.61 167.628 551.47 178.028 553.01C188.428 554.55 203.038 549.96 213.028 552.01C213.288 551.93 213.768 552.77 214.028 553.01C232.948 556.74 235.588 534.78 238.358 521.34C241.118 507.89 246.618 489.37 250.028 476.01C251.618 463.78 256.288 452.18 258.028 440.01C260.818 420.46 266.918 400.61 272.028 382.01C272.908 376.48 274.738 371.04 276.028 366.01C280.928 346.83 285.228 326.82 290.028 308.01C291.568 294.6 296.378 282.32 298.028 269.01C300.228 251.27 306.448 232.9 311.028 216.01C312.808 204.81 316.328 193.6 319.028 183.01C320.638 176.69 320.208 168.63 324.028 163.01C329.138 155.48 347.098 161.15 356.028 160.01C364.958 158.87 381.908 159.93 391.028 160.01C400.148 160.09 415.648 156.92 421.028 165.01C426.938 173.9 417.258 187.57 416.958 197.94C416.658 208.31 409.898 220.02 409.018 231C408.138 241.98 402.708 252.83 401.028 264.01C399.338 275.18 395.739 285.21 393.809 296.79C391.879 308.37 386.888 317.42 386.028 330.01C385.168 342.6 401.058 329.81 406.108 323.09C411.168 316.37 420.938 309.5 426.778 302.76C432.618 296.02 440.578 288.7 446.028 282.01C448.918 278.46 452.688 275.57 456.028 273.01C467.608 262.2 481.758 248.27 492.778 236.76C503.798 225.24 518.979 212.06 528.779 200.76C538.579 189.47 563.759 174.23 555.779 159.26C547.809 144.28 531.239 135.35 520.279 122.76C509.309 110.18 495.868 97.8403 483.778 86.2603C471.698 74.6803 460.628 59.3903 446.028 52.0103C436.828 47.3603 424.618 47.8803 414.028 48.0103C403.438 48.1403 391.708 49.9103 380.698 48.3403C369.688 46.7703 357.438 48.5003 346.028 48.0103C334.618 47.5203 322.588 48.2303 311.028 48.0103C299.468 47.7903 287.678 48.1103 276.028 48.0103C264.378 47.9103 252.748 48.0503 241.028 48.0103C229.308 47.9703 216.728 48.0203 205.028 48.0103C193.328 48.0103 181.618 47.9803 170.028 48.0103C158.438 48.0403 146.448 47.9403 135.028 48.0103C123.608 48.0803 111.108 47.8403 100.028 48.0103C88.9485 48.1803 75.3885 47.6303 65.0285 48.0103C54.6685 48.3903 38.7985 47.1603 30.0285 48.0103C21.2585 48.8603 0.118477 43.5303 1.02848 54.0103Z" fill="#D45102" stroke="#D45102"/>
</svg>
