<svg width="565" height="216" viewBox="0 0 565 216" fill="none" xmlns="http://www.w3.org/2000/svg">
<path fill-rule="evenodd" clip-rule="evenodd" d="M215.537 52.2055C212.693 54.448 209.406 55.622 205.677 55.727C199.946 55.7544 194.312 55.0501 188.774 53.6141C174.049 43.2576 170.41 29.8763 177.858 13.47C180.706 9.44789 184.227 6.16101 188.422 3.6101C188.749 3.19175 188.867 2.722 188.774 2.20153C189.402 1.77192 190.106 1.53739 190.887 1.49725C191.053 1.91771 191.405 2.15223 191.944 2.20153C193.864 1.80502 195.742 1.33527 197.578 0.792969C198.106 1.23385 198.693 1.58599 199.338 1.84939C198.472 2.68256 198.472 3.50375 199.338 4.31438C199.993 3.47699 200.227 2.53818 200.043 1.49725C206.016 1.12187 211.416 2.64805 216.241 6.07508C229.133 17.9718 230.894 31.2363 221.523 45.867C220.257 47.608 218.613 48.782 216.593 49.3884C216.036 50.2652 215.684 51.2041 215.537 52.2055Z" fill="#FE6100"/>
<path fill-rule="evenodd" clip-rule="evenodd" d="M215.533 52.2056C215.68 51.2041 216.032 50.2653 216.589 49.3884C218.609 48.7821 220.253 47.608 221.519 45.867C230.89 31.2363 229.129 17.9718 216.237 6.07512C211.411 2.64808 206.011 1.12191 200.038 1.49729C200.223 2.53822 199.988 3.47702 199.334 4.31441C198.467 3.50379 198.467 2.68259 199.334 1.84943C198.689 1.58603 198.102 1.23389 197.573 0.793005C195.737 1.3353 193.86 1.80506 191.939 2.20157C191.4 2.15227 191.048 1.91774 190.883 1.49729C206.926 -2.86363 218.781 2.30158 226.449 16.9915C231.271 31.5448 227.632 43.2823 215.533 52.2056Z" fill="#FE6100"/>
<path fill-rule="evenodd" clip-rule="evenodd" d="M188.771 2.20312C188.863 2.72359 188.745 3.19335 188.419 3.61169C184.224 6.1626 180.702 9.44948 177.854 13.4716C170.407 29.8779 174.046 43.2592 188.771 53.6157C178.415 48.4132 173.016 39.9618 172.572 28.2616C173.114 16.4712 178.513 7.78526 188.771 2.20312Z" fill="#FE6100"/>
<path fill-rule="evenodd" clip-rule="evenodd" d="M2.8418 39.5346C50.8492 38.7141 98.9756 38.5965 147.22 39.1825C147.611 39.4522 147.846 39.8043 147.924 40.2389C99.5925 39.5395 51.2316 39.3043 2.8418 39.5346Z" fill="#FE6100"/>
<path fill-rule="evenodd" clip-rule="evenodd" d="M2.8422 39.5347C51.232 39.3044 99.5929 39.5396 147.924 40.239C149 40.1876 149.704 40.6573 150.037 41.6475C148.379 41.4095 146.736 41.0573 145.107 40.5911C97.6857 40.1214 50.2636 40.1214 2.8422 40.5911C1.82521 41.3841 1.35616 42.4406 1.43363 43.7604C1.76324 45.6852 2.23299 47.5635 2.8422 49.3946C0.257131 47.4586 -0.564554 44.876 0.377212 41.6475C1.10896 40.7954 1.93086 40.0911 2.8422 39.5347Z" fill="#FD6101"/>
<path fill-rule="evenodd" clip-rule="evenodd" d="M150.036 41.6431C150.734 41.522 151.203 41.7572 151.444 42.3474C151.487 44.6222 152.661 45.9132 154.966 46.2209C161.097 52.6912 167.67 58.6776 174.685 64.1801C174.92 64.1801 175.155 64.1801 175.39 64.1801C175.285 64.921 175.402 65.6253 175.742 66.293C182.961 72.8062 190.004 79.6145 196.87 86.7172C198.977 90.0745 199.095 93.4783 197.222 96.9292C197.272 97.468 197.506 97.8202 197.927 97.9857C197.692 98.6899 197.222 99.1597 196.518 99.3942C195.658 98.7146 194.719 98.8322 193.701 99.7464C194.64 100.216 194.64 100.685 193.701 101.155C192.79 101.5 191.851 101.618 190.884 101.507C191.038 102.335 190.804 103.039 190.18 103.62C186.445 105.239 184.333 108.056 183.841 112.071C180.745 112.34 178.632 113.983 177.503 117.001C176.391 117.563 175.218 117.915 173.981 118.058C172.735 122.004 170.153 124.704 166.234 126.157C163.982 129.185 161.634 132.119 159.191 134.96C157.483 136.119 155.605 136.94 153.557 137.425C153.86 137.984 154.096 138.571 154.261 139.186C152.203 140.887 150.56 142.883 149.331 145.173C149.331 145.407 149.331 145.642 149.331 145.877C148.157 145.877 146.984 145.877 145.81 145.877C145.99 147.576 145.286 148.75 143.697 149.398C142.647 148.801 142.177 147.862 142.288 146.581C142.098 144.876 142.567 144.407 143.697 145.173C145.201 144.215 145.436 142.924 144.401 141.299C144.775 139.745 145.479 138.336 146.514 137.073C146.146 136.678 145.912 136.208 145.81 135.665C147.355 127.822 148.764 119.957 150.036 112.071C149.847 110.945 150.082 110.006 150.74 109.254C151.174 109.176 151.526 108.941 151.796 108.55C154.161 101.973 154.982 95.2826 154.261 88.4779C145.81 88.0081 137.358 88.0081 128.907 88.4779C127.437 89.0357 126.146 89.8575 125.034 90.9428C121.709 110.263 118.07 129.514 114.117 148.694C110.978 154.874 109.217 161.448 108.835 168.414C106.433 171.082 105.846 174.135 107.074 177.57C105.752 182.922 104.813 188.322 104.257 193.768C102.608 199.885 100.729 205.989 98.623 212.079C83.014 212.549 67.5198 213.018 52.1404 213.488C51.4417 213.609 50.9727 213.374 50.7318 212.784C60.0044 171.835 69.3953 130.869 78.9031 89.8864C78.4847 89.5596 78.015 89.442 77.4945 89.5343C61.1812 88.9483 44.7482 88.5962 28.1948 88.4779C26.6989 87.6877 25.4079 86.6312 24.3212 85.3086C20.9005 79.4011 17.4967 73.5316 14.1091 67.7015C11.2554 60.9799 7.49875 54.8766 2.84063 49.3902C2.23142 47.5591 1.76167 45.6808 1.43206 43.756C1.35459 42.4361 1.82364 41.3797 2.84063 40.5867C50.262 40.1169 97.6841 40.1169 145.106 40.5867C146.735 41.0529 148.378 41.4051 150.036 41.6431Z" fill="#FE6100"/>
<path fill-rule="evenodd" clip-rule="evenodd" d="M151.443 42.3516C159.832 48.8598 167.579 56.1372 174.685 64.1843C167.669 58.6817 161.096 52.6954 154.965 46.2251C152.66 45.9173 151.486 44.6264 151.443 42.3516Z" fill="#FE6100"/>
<path fill-rule="evenodd" clip-rule="evenodd" d="M188.77 53.6172C194.307 55.0532 199.942 55.7575 205.672 55.73C202.045 56.5407 198.289 56.6576 194.404 56.0822C192.221 55.8096 190.343 54.9877 188.77 53.6172Z" fill="#FE6100"/>
<path fill-rule="evenodd" clip-rule="evenodd" d="M2.8418 49.3906C7.49992 54.877 11.2566 60.9803 14.1103 67.702C10.0029 61.8395 6.247 55.7355 2.8418 49.3906Z" fill="#FE6100"/>
<path fill-rule="evenodd" clip-rule="evenodd" d="M175.391 64.1719C183.094 71.5225 190.724 79.035 198.28 86.7089C200.599 90.6494 200.482 94.406 197.928 97.9774C197.507 97.8119 197.273 97.4598 197.223 96.921C199.096 93.47 198.979 90.0662 196.871 86.7089C190.005 79.6062 182.962 72.7979 175.743 66.2847C175.403 65.6171 175.286 64.9128 175.391 64.1719Z" fill="#FE6100"/>
<path fill-rule="evenodd" clip-rule="evenodd" d="M196.519 99.3916C192.528 103.852 188.302 108.078 183.842 112.069C184.333 108.054 186.446 105.236 190.18 103.617C190.804 103.036 191.039 102.332 190.885 101.504C191.852 101.615 192.791 101.497 193.702 101.152C194.641 100.683 194.641 100.214 193.702 99.7438C194.72 98.8296 195.659 98.712 196.519 99.3916Z" fill="#FE6100"/>
<path fill-rule="evenodd" clip-rule="evenodd" d="M238.074 148.694C237.488 169.234 237.135 189.892 237.017 210.671C236.754 211.316 236.402 211.903 235.961 212.432C227.744 212.901 219.528 212.901 211.311 212.432C210.781 211.959 210.546 211.372 210.607 210.671C210.142 176.595 210.612 142.672 212.015 108.902C211.395 107.947 211.16 106.891 211.311 105.733C219.766 105.615 228.217 105.733 236.665 106.085C237.509 111.968 237.509 117.72 236.665 123.34C236.9 123.574 237.135 123.81 237.369 124.044C239.017 123.786 240.191 122.965 240.891 121.579C240.654 120.854 240.184 120.502 239.482 120.523C239.786 119.671 240.256 118.966 240.891 118.41C240.798 118.93 240.916 119.4 241.243 119.818C242.917 117.292 244.678 114.827 246.525 112.424C247.436 112.078 248.375 111.961 249.342 112.071C249.222 111.14 249.457 110.318 250.046 109.606C254.221 107.17 258.681 105.293 263.428 103.972C269.551 103.471 275.655 103.589 281.739 104.324C281.739 113.714 281.739 123.105 281.739 132.496C274.927 132.379 268.119 132.496 261.315 132.848C254.482 134.075 248.378 136.774 243.004 140.947C240.817 143.212 239.174 145.794 238.074 148.694Z" fill="#FE6100"/>
<path fill-rule="evenodd" clip-rule="evenodd" d="M560.635 140.947C564.382 156.199 563.208 170.989 557.113 185.317C553.633 190.251 549.876 195.063 545.845 199.755C542.819 200.422 540.941 202.183 540.21 205.037C537.156 205.091 534.808 206.382 533.168 208.911C526.242 211.65 519.2 213.88 512.039 215.601C493.753 216.239 478.023 210.371 464.852 197.994C462.176 196.26 460.298 193.912 459.218 190.951C457.619 187.121 455.858 183.365 453.936 179.683C450.931 171.002 449.993 162.081 451.119 152.92C451.872 141.546 456.097 132.155 463.796 124.749C464.152 123.328 464.504 121.919 464.852 120.523C469.423 117.018 474.119 113.613 478.938 110.311C504.398 98.4355 527.405 101.957 547.958 120.875C551.804 124.835 554.621 129.413 556.409 134.609C557.999 136.621 559.408 138.734 560.635 140.947Z" fill="#FE6100"/>
<path fill-rule="evenodd" clip-rule="evenodd" d="M323.996 105.736C324.832 106.464 325.419 107.403 325.757 108.553C326.109 142.592 326.227 176.633 326.109 210.674C325.569 211.147 325.099 211.733 324.7 212.434C316.484 212.904 308.267 212.904 300.051 212.434C299.229 212.082 298.642 211.495 298.29 210.674C297.82 176.164 297.82 141.654 298.29 107.144C298.642 106.792 298.994 106.44 299.346 106.088C307.56 105.736 315.776 105.618 323.996 105.736Z" fill="#FE6100"/>
<path fill-rule="evenodd" clip-rule="evenodd" d="M375.405 126.157C381.638 138.636 387.154 151.548 391.956 164.892C392.606 165.779 393.193 166.718 393.717 167.709C394.193 166.933 394.662 166.229 395.125 165.596C399.178 155.922 403.051 146.062 406.746 136.016C408.01 132.839 408.831 129.552 409.211 126.157C409.646 126.078 409.998 125.844 410.267 125.452C412.39 119.075 414.62 112.736 416.958 106.437C427.277 105.733 437.606 105.498 447.946 105.732C447.946 107.141 447.946 108.549 447.946 109.958C446.801 113.637 445.393 117.158 443.721 120.522C442.571 120.751 441.867 121.455 441.608 122.635C437.193 135.175 432.497 147.617 427.522 159.962C427.61 160.39 427.844 160.624 428.227 160.666C428.348 161.365 428.112 161.834 427.522 162.075C427.568 161.766 427.451 161.531 427.17 161.371C422.739 172.468 418.396 183.619 414.141 194.824C414.19 195.363 414.425 195.715 414.845 195.88C414.845 196.35 414.611 196.585 414.141 196.585C412.276 199.375 410.75 202.427 409.563 205.74C409.329 205.271 409.093 204.802 408.859 204.332C408.237 207.233 407.181 209.933 405.69 212.431C397.228 213.018 388.777 212.9 380.335 212.079C378.616 208.403 376.738 204.881 374.701 201.515C368.528 186.052 362.894 170.323 357.798 154.328C357.199 151 356.377 147.713 355.333 144.468C352.325 136.352 349.156 128.369 345.826 120.522C345.189 120.023 344.954 119.319 345.121 118.409C344.581 115.73 344.112 113.029 343.713 110.31C343.575 108.654 344.045 107.245 345.121 106.085C351.225 105.615 357.329 105.615 363.433 106.085C365.396 106.994 367.04 108.286 368.363 109.958C370.177 115.689 372.525 121.089 375.405 126.157Z" fill="#FE6100"/>
<path fill-rule="evenodd" clip-rule="evenodd" d="M375.405 126.15C372.525 121.082 370.177 115.683 368.363 109.952C367.04 108.28 365.396 106.988 363.433 106.078C357.329 105.608 351.225 105.608 345.121 106.078C344.045 107.239 343.575 108.647 343.713 110.304C344.112 113.023 344.581 115.723 345.121 118.403C343.434 115.661 342.495 112.61 342.304 109.247C342.182 107.703 342.651 106.411 343.713 105.374C350.215 104.239 356.788 104.004 363.433 104.67C365.589 105.417 367.35 106.708 368.715 108.543C371.333 114.251 373.563 120.12 375.405 126.15Z" fill="#FE6100"/>
<path fill-rule="evenodd" clip-rule="evenodd" d="M323.995 105.028C323.995 105.262 323.995 105.498 323.995 105.732C315.775 105.614 307.558 105.732 299.345 106.084C298.993 106.436 298.64 106.789 298.288 107.141C297.818 141.65 297.818 176.16 298.288 210.67C298.64 211.492 299.227 212.079 300.049 212.431C308.266 212.901 316.482 212.901 324.699 212.431C325.097 211.73 325.567 211.143 326.107 210.67C326.342 210.67 326.577 210.67 326.812 210.67C326.559 211.988 325.855 213.044 324.699 213.839C316.247 214.309 307.796 214.309 299.345 213.839C298.254 212.984 297.433 211.928 296.88 210.67C296.41 176.16 296.41 141.65 296.88 107.141C297.207 106.133 297.795 105.312 298.64 104.676C307.214 104.094 315.666 104.211 323.995 105.028Z" fill="#FE6100"/>
<path fill-rule="evenodd" clip-rule="evenodd" d="M447.948 109.955C447.948 108.546 447.948 107.138 447.948 105.729C437.608 105.495 427.279 105.73 416.96 106.433C414.622 112.733 412.392 119.072 410.269 125.449C410 125.841 409.647 126.075 409.213 126.153C411.257 118.895 413.605 111.735 416.256 104.673C426.82 104.203 437.384 104.203 447.948 104.673C449.598 106.423 449.598 108.183 447.948 109.955Z" fill="#FE6100"/>
<path fill-rule="evenodd" clip-rule="evenodd" d="M560.642 140.946C559.415 138.733 558.006 136.62 556.416 134.608C554.629 129.412 551.811 124.834 547.965 120.874C527.412 101.956 504.405 98.4346 478.945 110.31C474.126 113.613 469.43 117.017 464.859 120.522C475.798 108.719 489.413 102.616 505.708 102.211C526.89 102.763 543.441 111.684 555.36 128.974C557.895 132.635 559.656 136.626 560.642 140.946Z" fill="#FE6100"/>
<path fill-rule="evenodd" clip-rule="evenodd" d="M183.844 112.066C172.629 123.279 161.126 134.313 149.334 145.168C150.562 142.878 152.206 140.882 154.264 139.181C154.098 138.566 153.863 137.979 153.56 137.421C155.608 136.935 157.486 136.114 159.194 134.956C161.637 132.114 163.985 129.18 166.237 126.152C170.155 124.699 172.738 121.999 173.984 118.053C175.221 117.911 176.394 117.558 177.505 116.996C178.635 113.979 180.748 112.335 183.844 112.066Z" fill="#FE6100"/>
<path fill-rule="evenodd" clip-rule="evenodd" d="M238.072 210.674C238.072 190.015 238.072 169.356 238.072 148.697C239.173 145.797 240.816 143.215 243.002 140.95C248.377 136.777 254.481 134.078 261.314 132.851C268.118 132.499 274.926 132.382 281.738 132.499C281.738 123.108 281.738 113.718 281.738 104.327C275.653 103.592 269.549 103.474 263.426 103.975C258.68 105.296 254.219 107.173 250.045 109.609C249.456 110.321 249.221 111.143 249.341 112.074C248.374 111.964 247.434 112.081 246.524 112.427C244.676 114.83 242.916 117.295 241.242 119.822C240.915 119.403 240.797 118.933 240.889 118.413C246.555 109.375 254.771 104.093 265.539 102.567C271.212 101.988 276.847 102.223 282.442 103.271C283.256 112.96 283.374 122.703 282.794 132.499C281.757 133.56 280.465 134.03 278.921 133.907C263.333 130.722 250.304 134.948 239.833 146.584C239.022 168.006 238.436 189.369 238.072 210.674Z" fill="#FE6100"/>
<path fill-rule="evenodd" clip-rule="evenodd" d="M150.742 109.246C151.865 104.345 152.922 99.4147 153.911 94.4559C154.484 92.7642 154.367 91.1211 153.559 89.5259C145.61 88.7195 137.628 88.6026 129.613 89.1738C128.968 89.4372 128.381 89.7893 127.853 90.2302C123.305 109.814 118.727 129.3 114.119 148.686C118.072 129.506 121.711 110.255 125.036 90.9345C126.148 89.8492 127.439 89.0273 128.909 88.4695C137.36 87.9997 145.812 87.9997 154.263 88.4695C154.984 95.2743 154.162 101.965 151.798 108.542C151.528 108.933 151.176 109.168 150.742 109.246Z" fill="#FE6100"/>
<path fill-rule="evenodd" clip-rule="evenodd" d="M239.477 120.519C240.18 120.498 240.649 120.85 240.886 121.575C240.187 122.961 239.013 123.783 237.365 124.04C237.13 123.806 236.895 123.571 236.66 123.336C237.504 117.716 237.504 111.964 236.66 106.081C228.212 105.729 219.761 105.611 211.306 105.729C211.155 106.887 211.391 107.943 212.01 108.898C210.608 142.668 210.138 176.591 210.602 210.667C210.132 176.627 209.663 142.586 209.193 108.546C209.433 107.012 210.137 105.721 211.306 104.673C219.992 104.203 228.679 104.203 237.365 104.673C237.717 105.025 238.069 105.377 238.421 105.729C238.527 111.187 238.88 116.117 239.477 120.519Z" fill="#FE6100"/>
<path fill-rule="evenodd" clip-rule="evenodd" d="M527.528 176.865C527.058 176.865 526.824 177.099 526.824 177.569C516.995 187.346 505.726 189.342 493.018 183.555C489.829 181.186 487.011 178.486 484.567 175.456C484.618 174.381 484.149 173.676 483.158 173.343C479.691 164.275 479.457 155.119 482.454 145.876C493.049 130.463 506.431 127.528 522.598 137.073C531.103 144.746 534.272 154.254 532.106 165.596C531.147 169.621 529.62 173.378 527.528 176.865Z" fill="#FEFBF9"/>
<path fill-rule="evenodd" clip-rule="evenodd" d="M527.533 176.864C529.625 173.377 531.152 169.621 532.111 165.596C534.277 154.254 531.108 144.746 522.603 137.072C506.436 127.528 493.054 130.463 482.459 145.876C482.984 142.726 484.393 140.027 486.685 137.776C496.357 130.363 507.391 128.719 519.786 132.847C519.551 133.081 519.316 133.316 519.082 133.551C523.773 135.428 527.646 138.362 530.702 142.354C531.424 146.386 532.363 150.377 533.519 154.327C534.258 161.466 533.085 168.273 529.998 174.751C529.463 175.852 528.642 176.556 527.533 176.864Z" fill="#FE6100"/>
<path fill-rule="evenodd" clip-rule="evenodd" d="M150.035 112.066C148.763 119.952 147.354 127.817 145.809 135.66C145.911 136.204 146.146 136.673 146.513 137.068C145.478 138.331 144.774 139.74 144.4 141.294C145.435 142.919 145.2 144.211 143.696 145.168C142.566 144.402 142.097 144.871 142.287 146.576C142.176 147.857 142.646 148.796 143.696 149.393C145.285 148.745 145.989 147.571 145.809 145.872C146.983 145.872 148.156 145.872 149.33 145.872C147.844 147.472 146.2 148.998 144.4 150.45C143.25 150.798 142.075 150.915 140.879 150.802C143.231 137.661 146.283 124.748 150.035 112.066Z" fill="#FE6100"/>
<path fill-rule="evenodd" clip-rule="evenodd" d="M464.853 120.523C464.505 121.919 464.152 123.328 463.797 124.749C456.098 132.155 451.873 141.546 451.12 152.92C449.994 162.082 450.932 171.002 453.937 179.683C455.859 183.365 457.619 187.121 459.219 190.952C454.736 185.156 451.801 178.583 450.415 171.232C447.357 156.798 449.47 143.182 456.754 130.383C459.092 126.758 461.792 123.472 464.853 120.523Z" fill="#FE6100"/>
<path fill-rule="evenodd" clip-rule="evenodd" d="M323.992 105.031C325.338 105.083 326.16 105.788 326.457 107.144C326.809 141.653 326.927 176.163 326.809 210.674C326.575 210.674 326.34 210.674 326.105 210.674C326.223 176.633 326.105 142.592 325.753 108.553C325.415 107.403 324.828 106.464 323.992 105.736C323.992 105.501 323.992 105.266 323.992 105.031Z" fill="#FE6100"/>
<path fill-rule="evenodd" clip-rule="evenodd" d="M409.211 126.16C408.831 129.555 408.01 132.842 406.746 136.02C403.051 146.065 399.177 155.925 395.125 165.6C399.125 152.193 403.819 139.046 409.211 126.16Z" fill="#FE6100"/>
<path fill-rule="evenodd" clip-rule="evenodd" d="M443.722 120.523C438.835 134.011 433.67 147.392 428.228 160.668C427.845 160.625 427.611 160.391 427.523 159.963C432.498 147.619 437.194 135.176 441.609 122.636C441.868 121.457 442.573 120.752 443.722 120.523Z" fill="#FE6100"/>
<path fill-rule="evenodd" clip-rule="evenodd" d="M345.826 120.523C349.157 128.371 352.326 136.353 355.334 144.469C356.378 147.714 357.2 151.001 357.799 154.329C353.019 143.356 349.028 132.087 345.826 120.523Z" fill="#FE6100"/>
<path fill-rule="evenodd" clip-rule="evenodd" d="M560.633 140.941C565.425 153.792 565.308 166.703 560.281 179.677C559.675 181.883 558.618 183.762 557.111 185.311C563.206 170.983 564.38 156.193 560.633 140.941Z" fill="#FE6100"/>
<path fill-rule="evenodd" clip-rule="evenodd" d="M77.4943 89.5304C78.0148 89.4382 78.4846 89.5558 78.9029 89.8826C69.3951 130.865 60.0042 171.831 50.7316 212.78C50.3922 212.135 50.1576 211.43 50.0273 210.667C59.1872 170.274 68.3429 129.895 77.4943 89.5304Z" fill="#FE6100"/>
<path fill-rule="evenodd" clip-rule="evenodd" d="M482.456 145.879C479.458 155.122 479.693 164.278 483.16 173.346C481.408 172.473 480.117 171.064 479.286 169.12C478.333 161.427 479.037 153.915 481.399 146.583C481.669 146.192 482.021 145.957 482.456 145.879Z" fill="#FE6100"/>
<path fill-rule="evenodd" clip-rule="evenodd" d="M209.195 108.547C209.664 142.587 210.133 176.628 210.603 210.668C210.543 211.369 210.778 211.956 211.307 212.428C219.524 212.898 227.74 212.898 235.957 212.428C236.398 211.9 236.75 211.313 237.014 210.668C237.132 189.889 237.484 169.231 238.07 148.691C238.07 169.35 238.07 190.009 238.07 210.668C238.027 212.141 237.323 213.198 235.957 213.837C227.74 214.307 219.524 214.307 211.307 213.837C210.462 213.201 209.874 212.38 209.547 211.372C209.195 177.097 209.077 142.823 209.195 108.547Z" fill="#FE6100"/>
<path fill-rule="evenodd" clip-rule="evenodd" d="M114.118 148.688C111.265 163.9 107.978 178.924 104.258 193.762C104.813 188.315 105.752 182.916 107.075 177.563C105.847 174.128 106.434 171.076 108.836 168.407C109.218 161.441 110.979 154.868 114.118 148.688Z" fill="#FE6100"/>
<path fill-rule="evenodd" clip-rule="evenodd" d="M427.526 162.075C423.278 173.379 419.052 184.648 414.849 195.881C414.428 195.715 414.194 195.363 414.145 194.824C418.399 183.619 422.742 172.468 427.174 161.371C427.455 161.532 427.572 161.767 427.526 162.075Z" fill="#FE6100"/>
<path fill-rule="evenodd" clip-rule="evenodd" d="M484.569 175.462C487.013 178.492 489.83 181.192 493.02 183.561C505.728 189.347 516.997 187.351 526.826 177.575C523.75 182.997 519.055 186.166 512.74 187.082C507.826 187.356 503.014 187.473 498.302 187.435C493.769 185.272 489.425 182.925 485.273 180.392C484.252 178.905 483.548 177.262 483.16 175.462C483.491 174.784 483.961 174.784 484.569 175.462Z" fill="#FE6100"/>
<path fill-rule="evenodd" clip-rule="evenodd" d="M557.112 185.316C553.747 193.845 548.113 200.418 540.209 205.036C540.939 202.182 542.818 200.421 545.843 199.754C549.875 195.062 553.631 190.25 557.112 185.316Z" fill="#FE6100"/>
<path fill-rule="evenodd" clip-rule="evenodd" d="M464.859 197.992C478.03 210.369 493.76 216.237 512.046 215.599C494.929 217.496 479.904 212.684 466.972 201.161C465.816 200.366 465.112 199.31 464.859 197.992Z" fill="#FE6100"/>
<path fill-rule="evenodd" clip-rule="evenodd" d="M540.21 205.027C532.042 211.588 522.652 215.109 512.039 215.592C519.199 213.87 526.242 211.641 533.168 208.901C534.808 206.373 537.156 205.082 540.21 205.027Z" fill="#FE6100"/>
<path fill-rule="evenodd" clip-rule="evenodd" d="M104.257 193.762C103.65 199.009 102.594 204.174 101.088 209.256C100.725 211.041 99.9029 212.566 98.6232 213.834C83.0086 214.418 67.5144 214.301 52.1406 213.482C67.52 213.012 83.0142 212.543 98.6232 212.073C100.73 205.982 102.608 199.878 104.257 193.762Z" fill="#FE6100"/>
<path fill-rule="evenodd" clip-rule="evenodd" d="M414.141 196.582C412.898 199.781 411.841 203.068 410.972 206.442C409.835 209.028 408.544 211.493 407.098 213.837C398.177 214.307 389.257 214.307 380.335 213.837C379.429 212.844 378.607 211.787 377.87 210.668C376.804 207.601 375.748 204.549 374.701 201.512C376.738 204.878 378.616 208.4 380.335 212.076C388.777 212.897 397.228 213.015 405.69 212.428C407.181 209.93 408.237 207.231 408.859 204.329C409.093 204.799 409.329 205.268 409.563 205.738C410.75 202.425 412.276 199.372 414.141 196.582Z" fill="#FE6100"/>
</svg>
